# xmcd
# 
# Track frame offsets:
#     150
#     20453
#     41511
#     60833
#     75756
#     92884
#     114501
#     133744
#     152476
#     177986
#     197695
#     211941
#     234454
# 
# Disc length: 3301
# 
# Revision: 1
# Processed by: cddbd v1.5.2PL0 Copyright (c) Steve Scherf et al.
# Submitted via: fre:ac v1.0.31
# 
DISCID=990ce30d
DTITLE=Gretchen Peters - The Essential Disc 1
DYEAR=2016
DGENRE=Country
TTITLE0=Blackbirds
TTITLE1=The Aviator's Song
TTITLE2=The Secret Of Life
TTITLE3=Heaven
TTITLE4=When All You Got Is A Hammer
TTITLE5=On a Bus To St. Cloud
TTITLE6=The Matador
TTITLE7=Sunday Morning (Up and Down My Street)
TTITLE8=Guadalupe (with Tom Russell)
TTITLE9=Hello Cruel World
TTITLE10=When You Love Someone (with Bryan Adams)
TTITLE11=Five Minutes
TTITLE12=When You Are Old
EXTD=
EXTT0=
EXTT1=
EXTT2=
EXTT3=
EXTT4=
EXTT5=
EXTT6=
EXTT7=
EXTT8=
EXTT9=
EXTT10=
EXTT11=
EXTT12=
PLAYORDER=
